<svg width="30" height="30" viewBox="0 0 30 30" fill="none" xmlns="http://www.w3.org/2000/svg">
<g id="_&#235;&#160;&#136;&#236;&#157;&#180;&#236;&#150;&#180;_1" opacity="0.5" clip-path="url(#clip0_20_642)">
<path id="Vector" d="M15.124 0C7.1164 0 0.625977 5.8751 0.625977 13.1187C0.625977 18.4695 2.91555 21.0254 6.05633 23.3539L6.0721 23.3616V29.6415C6.0721 29.9383 6.41888 30.1079 6.65927 29.9306L12.1566 25.9368L12.2748 25.9869C13.197 26.1527 14.1506 26.2413 15.124 26.2413C23.1316 26.2413 29.622 20.3662 29.622 13.1226C29.622 5.87895 23.1316 0 15.124 0ZM4.80317 13.1033C4.80317 10.0077 7.21886 7.7872 10.2651 7.7872C12.9132 7.7872 14.8954 9.44102 15.3841 11.9584H13.2876C12.9684 10.5898 11.7113 9.73786 10.2651 9.73786C8.21587 9.73786 6.85237 11.1681 6.85237 13.1033C6.85237 15.0386 8.40108 16.4418 10.2651 16.4418C11.6877 16.4418 12.9014 15.6091 13.2679 14.3254H15.3683C14.856 16.8003 12.8857 18.4194 10.2651 18.4194C7.21886 18.4194 4.80317 16.1951 4.80317 13.1033ZM24.1168 18.219H22.1898V13.9668C22.1898 12.9877 21.6065 12.4634 20.712 12.4634C19.711 12.4634 19.0687 13.0609 19.0687 14.2752V18.219H17.1417V7.8219H19.0687V11.7348C19.5298 11.0486 20.2785 10.7132 21.2952 10.7132C22.1149 10.7132 22.7888 10.9753 23.3129 11.515C23.8528 12.0547 24.1207 12.7872 24.1207 13.7355V18.219H24.1168Z" fill="white"/>
</g>
<defs>
<clipPath id="clip0_20_642">
<rect width="29" height="30" fill="white" transform="translate(0.625977)"/>
</clipPath>
</defs>
</svg>
