<svg width="101" height="46" viewBox="0 0 101 46" fill="none" xmlns="http://www.w3.org/2000/svg">
<g id="Group 9" opacity="0.5">
<g id="Group">
<path id="Vector" d="M13.1028 41.1655C13.2625 40.8689 13.4849 40.6428 13.7684 40.4857C14.052 40.3287 14.3788 40.2494 14.746 40.2494C15.2325 40.2494 15.6325 40.3698 15.9459 40.6091C16.2593 40.8484 16.4533 41.1699 16.5294 41.575H16.1921C16.1294 41.2462 15.9682 40.9878 15.7086 40.7999C15.4489 40.612 15.1265 40.518 14.7445 40.518C14.4579 40.518 14.1982 40.5797 13.9639 40.7045C13.7296 40.8293 13.5416 41.0186 13.4013 41.2756C13.261 41.531 13.1894 41.8422 13.1894 42.2092C13.1894 42.5763 13.2595 42.8934 13.4013 43.1459C13.5416 43.3998 13.7296 43.5892 13.9639 43.7169C14.1982 43.8432 14.4579 43.9078 14.7445 43.9078C15.1265 43.9078 15.4474 43.8138 15.7086 43.6259C15.9682 43.438 16.1294 43.1796 16.1921 42.8508H16.5294C16.4533 43.2501 16.2578 43.5716 15.9414 43.8168C15.6265 44.0619 15.2265 44.1838 14.7445 44.1838C14.3773 44.1838 14.0505 44.1045 13.7669 43.9445C13.4834 43.7845 13.261 43.5555 13.1013 43.2574C12.9416 42.9594 12.861 42.61 12.861 42.2107C12.861 41.8114 12.9416 41.4635 13.1013 41.1684L13.1028 41.1655Z" fill="white"/>
<path id="Vector_2" d="M21.8245 43.943C21.5335 43.783 21.3052 43.554 21.141 43.256C20.9768 42.958 20.8932 42.6086 20.8932 42.2092C20.8932 41.8099 20.9768 41.4679 21.144 41.1699C21.3111 40.8718 21.541 40.6443 21.835 40.4857C22.129 40.3287 22.4573 40.2494 22.82 40.2494C23.1826 40.2494 23.5095 40.3287 23.802 40.4857C24.093 40.6428 24.3213 40.8704 24.4855 41.1655C24.6497 41.462 24.7333 41.8085 24.7333 42.2078C24.7333 42.6071 24.6497 42.9565 24.4825 43.2545C24.3154 43.5525 24.0855 43.7815 23.7915 43.9416C23.4975 44.1016 23.1692 44.1808 22.8065 44.1808C22.4439 44.1808 22.117 44.1016 21.8245 43.9416V43.943ZM23.5975 43.714C23.8438 43.5892 24.0408 43.3998 24.1885 43.1473C24.3363 42.8934 24.4109 42.5807 24.4109 42.2107C24.4109 41.8408 24.3363 41.5339 24.1885 41.28C24.0408 41.026 23.8453 40.8366 23.6005 40.7133C23.3572 40.5885 23.0946 40.5268 22.8125 40.5268C22.5304 40.5268 22.2693 40.5885 22.0275 40.7133C21.7857 40.8381 21.5917 41.0275 21.444 41.28C21.2962 41.5339 21.2216 41.8437 21.2216 42.2107C21.2216 42.5777 21.2947 42.8948 21.4395 43.1473C21.5857 43.4013 21.7783 43.5907 22.02 43.714C22.2618 43.8388 22.523 43.9004 22.805 43.9004C23.0871 43.9004 23.3513 43.8388 23.596 43.714H23.5975Z" fill="white"/>
<path id="Vector_3" d="M32.1834 40.6419C32.4745 40.9208 32.6207 41.3363 32.6207 41.8854V44.1256H32.3058V41.9059C32.3058 41.4508 32.1894 41.1014 31.9551 40.8592C31.7208 40.617 31.4029 40.4966 31.0029 40.4966C30.603 40.4966 30.2478 40.6287 29.997 40.8915C29.7463 41.1543 29.6209 41.5448 29.6209 42.0615V44.1256H29.2986V40.2999H29.6209V41.1102C29.7314 40.8239 29.9135 40.6037 30.1687 40.4511C30.4239 40.2984 30.7194 40.222 31.0537 40.222C31.5163 40.222 31.8939 40.3615 32.1849 40.6419H32.1834Z" fill="white"/>
<path id="Vector_4" d="M37.574 43.9009C37.2994 43.713 37.1457 43.4458 37.1114 43.0979H37.4412C37.4651 43.3475 37.5815 43.5442 37.7889 43.6895C37.9964 43.8349 38.28 43.9083 38.6381 43.9083C38.9336 43.9083 39.1694 43.8349 39.3441 43.6866C39.5187 43.5383 39.6052 43.3563 39.6052 43.1405C39.6052 42.9907 39.559 42.8674 39.4649 42.7705C39.3724 42.6736 39.256 42.6002 39.1172 42.5488C38.9784 42.4975 38.7904 42.4402 38.5516 42.38C38.265 42.3051 38.0337 42.2303 37.8561 42.1583C37.6785 42.0864 37.5293 41.9763 37.4054 41.831C37.2815 41.6856 37.2188 41.4904 37.2188 41.2467C37.2188 41.0676 37.2741 40.9031 37.383 40.7505C37.492 40.5978 37.6457 40.4774 37.8412 40.3879C38.0367 40.2983 38.2591 40.2543 38.5068 40.2543C38.9127 40.2543 39.2411 40.3541 39.4918 40.5538C39.7425 40.7534 39.8769 41.0294 39.8963 41.3817H39.5739C39.559 41.1278 39.459 40.9208 39.2724 40.7622C39.0859 40.6022 38.8277 40.5229 38.4993 40.5229C38.2218 40.5229 37.9934 40.5934 37.8113 40.7343C37.6293 40.8753 37.5397 41.047 37.5397 41.2481C37.5397 41.4272 37.5905 41.5711 37.6934 41.6812C37.7964 41.7913 37.9233 41.8765 38.0725 41.9352C38.2232 41.9939 38.4217 42.0556 38.671 42.1216C38.9426 42.1921 39.162 42.2611 39.3261 42.3301C39.4903 42.3976 39.6306 42.4975 39.7455 42.6266C39.8604 42.7558 39.9171 42.9291 39.9171 43.1449C39.9171 43.3416 39.8619 43.5207 39.753 43.6807C39.6425 43.8407 39.4903 43.9655 39.2948 44.0536C39.0993 44.1432 38.8799 44.1872 38.6352 44.1872C38.2009 44.1872 37.8457 44.0932 37.5711 43.9053L37.574 43.9009Z" fill="white"/>
<path id="Vector_5" d="M47.7703 40.2993V44.1251H47.4479V43.2942C47.3375 43.5848 47.1554 43.808 46.9002 43.9607C46.645 44.1133 46.3525 44.1897 46.0227 44.1897C45.56 44.1897 45.1809 44.0502 44.8869 43.7698C44.5929 43.4909 44.4467 43.0754 44.4467 42.5264V40.2993H44.7616V42.5043C44.7616 42.9594 44.878 43.3088 45.1123 43.5511C45.3466 43.7933 45.6645 43.9137 46.0644 43.9137C46.4644 43.9137 46.8196 43.7815 47.0703 43.5188C47.3211 43.256 47.4464 42.8655 47.4464 42.3487V40.2979H47.7688L47.7703 40.2993Z" fill="white"/>
<path id="Vector_6" d="M52.8505 38.9109V44.1254H52.5281V38.9109H52.8505Z" fill="white"/>
<path id="Vector_7" d="M58.0934 40.5741V43.1036C58.0934 43.3855 58.1456 43.5792 58.2516 43.6849C58.356 43.7906 58.5426 43.8435 58.8097 43.8435H59.247V44.1254H58.7605C58.4217 44.1254 58.1725 44.0461 58.0113 43.889C57.8516 43.7319 57.771 43.4691 57.771 43.1036V40.5741H57.183V40.2996H57.771V39.3278H58.0934V40.2996H59.247V40.5741H58.0934Z" fill="white"/>
<path id="Vector_8" d="M63.6527 39.3731C63.6005 39.3232 63.5736 39.2571 63.5736 39.172C63.5736 39.0927 63.6005 39.0266 63.6527 38.9753C63.7049 38.9239 63.7691 38.8975 63.8467 38.8975C63.9243 38.8975 63.987 38.9239 64.0407 38.9753C64.093 39.0266 64.1198 39.0927 64.1198 39.172C64.1198 39.2571 64.093 39.3232 64.0407 39.3731C63.9885 39.423 63.9243 39.4465 63.8467 39.4465C63.7691 39.4465 63.7064 39.4216 63.6527 39.3731ZM64.0034 40.2995V44.1252H63.6811V40.2995H64.0034Z" fill="white"/>
<path id="Vector_9" d="M71.6551 40.6419C71.9461 40.9208 72.0923 41.3363 72.0923 41.8854V44.1256H71.7774V41.9059C71.7774 41.4508 71.661 41.1014 71.4267 40.8592C71.1924 40.617 70.8745 40.4966 70.4745 40.4966C70.0746 40.4966 69.7194 40.6287 69.4687 40.8915C69.2179 41.1543 69.0926 41.5448 69.0926 42.0615V44.1256H68.7702V40.2999H69.0926V41.1102C69.203 40.8239 69.3851 40.6037 69.6403 40.4511C69.8955 40.2984 70.191 40.222 70.5253 40.222C70.9879 40.222 71.3655 40.3615 71.6565 40.6419H71.6551Z" fill="white"/>
<path id="Vector_10" d="M79.5335 40.5429C79.8201 40.7381 80.0201 40.9877 80.135 41.2931V40.2992H80.4573V44.2453C80.4573 44.5977 80.3782 44.9059 80.2215 45.1717C80.0633 45.4374 79.8514 45.6414 79.5843 45.7853C79.3171 45.9292 79.0186 45.9996 78.6888 45.9996C78.2023 45.9996 77.7978 45.8851 77.4785 45.6546C77.1591 45.4242 76.9486 45.1144 76.8487 44.7239H77.171C77.2665 45.0293 77.4456 45.273 77.7083 45.4535C77.971 45.6341 78.2978 45.7251 78.6903 45.7251C78.9619 45.7251 79.2082 45.6649 79.4276 45.546C79.6469 45.4256 79.8201 45.2553 79.9469 45.0322C80.0738 44.809 80.1365 44.5477 80.1365 44.2468V43.1267C80.0215 43.432 79.8201 43.6845 79.5305 43.8842C79.241 44.0838 78.8948 44.1837 78.4888 44.1837C78.1262 44.1837 77.8023 44.1029 77.5187 43.94C77.2352 43.7785 77.0128 43.548 76.8531 43.25C76.6934 42.952 76.6129 42.6055 76.6129 42.2106C76.6129 41.8157 76.6934 41.4707 76.8531 41.1741C77.0128 40.8776 77.2352 40.65 77.5187 40.49C77.8023 40.33 78.1262 40.2507 78.4888 40.2507C78.8992 40.2507 79.2485 40.3491 79.535 40.5429H79.5335ZM79.9245 41.3254C79.7843 41.0699 79.5917 40.8717 79.3485 40.7337C79.1052 40.5957 78.8321 40.5253 78.5321 40.5253C78.2321 40.5253 77.9396 40.5928 77.7008 40.7264C77.462 40.86 77.2755 41.0538 77.1427 41.3077C77.0083 41.5617 76.9427 41.8627 76.9427 42.2091C76.9427 42.5556 77.0098 42.858 77.1427 43.1105C77.277 43.3645 77.4635 43.5597 77.7053 43.6948C77.9471 43.8313 78.2217 43.8989 78.5321 43.8989C78.8425 43.8989 79.1067 43.8299 79.3529 43.6904C79.5992 43.5524 79.7917 43.3542 79.929 43.0988C80.0678 42.8433 80.1365 42.5453 80.1365 42.2077C80.1365 41.87 80.0663 41.5793 79.9245 41.3239V41.3254Z" fill="white"/>
</g>
<g id="Group_2">
<path id="Vector_11" d="M33.4535 34.3671V32.3016H41.7126C42.4229 32.3016 43.0199 32.1548 43.502 31.8612C43.984 31.5675 44.3571 31.1844 44.6198 30.7102C44.884 30.236 45.0153 29.7516 45.0153 29.2539C45.0153 28.7562 44.9004 28.3011 44.6705 27.8827C44.4407 27.4658 44.1079 27.1208 43.6721 26.8507C43.2363 26.5806 42.6856 26.444 42.02 26.444H38.3382C37.2144 26.444 36.2443 26.2576 35.4309 25.8862C34.6161 25.5133 33.9967 24.9774 33.5729 24.2786C33.1475 23.5799 32.9356 22.7665 32.9356 21.8417C32.9356 21.0063 33.1416 20.2283 33.555 19.506C33.9684 18.7837 34.5534 18.2024 35.3101 17.7619C36.0667 17.3215 36.9502 17.1013 37.9591 17.1013H45.9078V19.1669H38.1994C37.3039 19.1669 36.604 19.4326 36.0995 19.9626C35.5951 20.4925 35.3429 21.0959 35.3429 21.7741C35.3429 22.4524 35.5951 23.0161 36.0995 23.5343C36.604 24.054 37.3606 24.3124 38.371 24.3124H41.8125C43.0513 24.3124 44.0885 24.515 44.9272 24.9217C45.7645 25.3283 46.3958 25.892 46.8196 26.6143C47.2435 27.3366 47.4569 28.1837 47.4569 29.1526C47.4569 30.0334 47.2271 30.8732 46.7689 31.6747C46.3092 32.4763 45.6854 33.1252 44.8929 33.6214C44.1019 34.1176 43.1781 34.3657 42.123 34.3657H33.4505L33.4535 34.3671Z" fill="white"/>
<path id="Vector_12" d="M59.159 34.8062C57.392 34.8062 55.8772 34.3996 54.6161 33.5877C53.3535 32.7759 52.3909 31.6866 51.7252 30.3213C51.0596 28.956 50.7268 27.4278 50.7268 25.7351C50.7268 24.0424 51.0939 22.4804 51.8282 21.1151C52.5625 19.7498 53.6117 18.6723 54.9772 17.8825C56.3413 17.0927 57.9651 16.6978 59.847 16.6978C61.729 16.6978 63.2244 17.0927 64.5437 17.8825C65.863 18.6723 66.8838 19.7337 67.6061 21.0638C68.3284 22.3953 68.6896 23.8956 68.6896 25.5663V34.3673H66.3152V30.5078H66.2122C65.8913 31.1845 65.4093 31.8569 64.7675 32.5219C64.1243 33.1884 63.3393 33.7345 62.411 34.1632C61.4812 34.5919 60.3977 34.8062 59.159 34.8062ZM59.6754 32.7744C60.9604 32.7744 62.0961 32.4647 63.0826 31.8437C64.0691 31.2227 64.8436 30.3771 65.4048 29.3054C65.9674 28.2337 66.248 27.0211 66.248 25.6661C66.248 24.3111 65.9838 23.1499 65.457 22.1119C64.9287 21.074 64.184 20.2504 63.2199 19.6412C62.2558 19.032 61.1081 18.7266 59.7784 18.7266C58.4486 18.7266 57.2203 19.0364 56.2338 19.6574C55.2474 20.2783 54.4907 21.1239 53.9624 22.1956C53.4341 23.2673 53.1714 24.4799 53.1714 25.8349C53.1714 27.0989 53.4236 28.2616 53.9281 29.3216C54.4325 30.383 55.1727 31.2227 56.1473 31.8437C57.1218 32.4647 58.2979 32.7744 59.6754 32.7744Z" fill="white"/>
<path id="Vector_13" d="M74.8175 34.3673V19.1685H71.7207V17.103H74.8175V14.5647C74.8175 13.0306 75.2592 11.8282 76.1428 10.9592C77.0263 10.0901 78.2471 9.65552 79.8081 9.65552H83.8004V11.7211H80.2559C79.2694 11.7211 78.5127 11.9912 77.9844 12.5329C77.4561 13.0746 77.1934 13.8424 77.1934 14.8348V17.103H83.1467V19.1685H77.1934V34.3673H74.819H74.8175Z" fill="white"/>
<path id="Vector_14" d="M94.122 34.3673C92.2401 34.3673 90.5596 34.0238 89.0806 33.3352C87.6001 32.6467 86.4315 31.6602 85.5704 30.3727C84.7108 29.0867 84.2795 27.5408 84.2795 25.7351C84.2795 24.0659 84.6242 22.548 85.3122 21.1827C86.0002 19.8174 86.9688 18.7281 88.2195 17.9162C89.4701 17.1044 90.9327 16.6978 92.6072 16.6978C94.2817 16.6978 95.7846 17.0706 96.977 17.8149C98.1695 18.5592 99.0769 19.5634 99.6962 20.8274C100.316 22.0914 100.626 23.5139 100.626 25.0921C100.626 25.3182 100.614 25.5663 100.592 25.8364C100.568 26.1065 100.533 26.3444 100.489 26.5469H86.827C86.8957 27.8109 87.2628 28.8709 87.9284 29.7282C88.5941 30.5856 89.4597 31.2286 90.5268 31.6572C91.5938 32.0859 92.746 32.3003 93.9847 32.3003H98.4247V34.3658H94.1235L94.122 34.3673ZM86.827 24.8557H98.1829C98.1829 24.4051 98.1366 23.903 98.0456 23.3495C97.9531 22.7975 97.7874 22.2499 97.5471 21.7082C97.3068 21.1665 96.974 20.6703 96.5487 20.2182C96.1233 19.7675 95.5846 19.4004 94.9309 19.1186C94.2772 18.8367 93.4803 18.6958 92.5385 18.6958C91.667 18.6958 90.8745 18.8763 90.1641 19.2375C89.4522 19.5986 88.8567 20.0787 88.3747 20.6762C87.8926 21.2737 87.5195 21.9343 87.2569 22.6566C86.9927 23.3789 86.8494 24.1129 86.827 24.8572V24.8557Z" fill="white"/>
</g>
<path id="Vector_15" d="M24.2494 17.5095C23.9509 17.2951 23.6315 17.0881 23.2927 16.8885C25.6552 15.6715 27.3835 13.3284 27.8267 10.7417C28.27 8.15501 27.4163 5.38331 25.5896 3.47337C23.1987 0.971806 19.5064 0.115929 16.0186 0.0131649C12.5309 -0.0881309 9.03411 0.437433 5.55676 0.15263C4.15985 0.0381219 2.6734 -0.192363 1.42274 0.427157C0.172093 1.04668 -0.472634 2.96689 0.645192 3.79781C1.16754 4.18685 1.87495 4.203 2.53012 4.20153C6.65667 4.20153 10.7817 4.19859 14.9083 4.19713C16.7081 4.19713 18.5513 4.203 20.2437 4.8093C21.9361 5.41561 23.4718 6.75448 23.7778 8.5C24.1121 10.4041 22.8838 12.3228 21.2227 13.3549C19.5617 14.3869 17.5469 14.6952 15.5888 14.8537C12.6189 15.0945 9.6251 15.0417 6.66563 14.6967C5.63884 14.5778 4.35536 14.1564 4.31208 13.1405C4.26432 12.0336 5.71048 11.5594 6.83278 11.464C9.60421 11.2306 12.3936 11.1924 15.1695 11.351C16.841 11.4464 19.1184 11.1498 19.2781 9.51002C19.3632 8.63946 18.6781 7.83937 17.8648 7.48998C17.0514 7.14058 16.1321 7.13911 15.2426 7.14351C13.3786 7.15379 11.516 7.16407 9.65197 7.18168C6.85815 7.20811 3.76286 7.36666 1.77794 9.30009C-0.327869 11.351 -0.245785 15.1532 1.94808 17.1131C0.113889 18.2039 -0.380103 20.8038 0.524305 22.7152C1.42871 24.6266 3.41961 25.8671 5.49258 26.4029C7.56556 26.9388 9.7445 26.8669 11.8861 26.792C13.2457 26.7435 14.6038 26.6966 15.9634 26.6481C17.2738 26.6026 18.9289 26.2914 19.2095 25.0303C19.399 24.1774 18.7587 23.3156 17.9588 22.9398C17.1589 22.564 16.2365 22.5566 15.3485 22.5581C12.7622 22.561 10.1743 22.564 7.58795 22.5654C6.16268 22.5654 4.21059 22.0267 4.38968 20.6364C4.53445 19.5207 5.97911 19.1625 7.12082 19.0935C9.48482 18.9511 11.8548 18.9056 14.2233 18.957C16.4306 19.0054 18.7125 19.1566 20.6705 20.1578C22.1779 20.9271 23.4703 22.2865 23.7181 23.9395C24.0613 26.2209 22.3018 28.4024 20.1661 29.3567C18.0304 30.3109 15.6008 30.3168 13.2562 30.305C9.88479 30.2904 6.5134 30.2742 3.14351 30.2595C2.05852 30.2551 0.772048 30.355 0.215374 31.271C-0.405475 32.2913 0.404911 33.6772 1.51229 34.1528C2.61967 34.6285 3.88674 34.4787 5.09261 34.3965C9.52362 34.0956 14.0218 34.8325 18.3931 34.0589C26.5358 32.6172 31.7458 22.8825 24.2479 17.5051L24.2494 17.5095Z" fill="white"/>
</g>
</svg>
