<svg width="31" height="30" viewBox="0 0 31 30" fill="none" xmlns="http://www.w3.org/2000/svg">
<g id="Group 63" opacity="0.5">
<path id="Vector" d="M21.9671 0H9.28481C4.50291 0 0.625977 3.87693 0.625977 8.65883V21.3412C0.625977 26.1231 4.50291 30 9.28481 30H21.9671C26.749 30 30.626 26.1231 30.626 21.3412V8.65883C30.6281 3.87693 26.7512 0 21.9671 0ZM27.8643 21.5642C27.8643 24.738 25.2917 27.3127 22.1159 27.3127H9.1361C5.96233 27.3127 3.38762 24.7401 3.38762 21.5642V8.58448C3.38762 5.41071 5.96021 2.836 9.1361 2.836H22.1159C25.2896 2.836 27.8643 5.40858 27.8643 8.58448V21.5642Z" fill="white"/>
<path id="Vector_2" d="M15.626 7.29077C11.3263 7.29077 7.84241 10.7768 7.84241 15.0744C7.84241 19.3719 11.3285 22.858 15.626 22.858C19.9236 22.858 23.4096 19.3719 23.4096 15.0744C23.4096 10.7768 19.9236 7.29077 15.626 7.29077ZM15.626 20.1218C12.8389 20.1218 10.5807 17.8615 10.5807 15.0765C10.5807 12.2915 12.841 10.0312 15.626 10.0312C18.411 10.0312 20.6713 12.2915 20.6713 15.0765C20.6713 17.8615 18.411 20.1218 15.626 20.1218Z" fill="white"/>
<path id="Vector_3" d="M23.6709 8.80941C24.6728 8.80941 25.4851 7.99717 25.4851 6.99522C25.4851 5.99327 24.6728 5.18103 23.6709 5.18103C22.6689 5.18103 21.8567 5.99327 21.8567 6.99522C21.8567 7.99717 22.6689 8.80941 23.6709 8.80941Z" fill="white"/>
</g>
</svg>
