<svg width="70" height="25" viewBox="0 0 70 25" fill="none" xmlns="http://www.w3.org/2000/svg">
<g id="Group 9">
<g id="Group">
<path id="Vector" d="M23.2719 23.9075V22.4706H29.0174C29.5116 22.4706 29.9268 22.3685 30.2622 22.1642C30.5975 21.96 30.8571 21.6934 31.0398 21.3636C31.2236 21.0337 31.3149 20.6967 31.3149 20.3505C31.3149 20.0043 31.235 19.6877 31.0751 19.3966C30.9152 19.1066 30.6837 18.8666 30.3805 18.6787C30.0774 18.4908 29.6943 18.3958 29.2312 18.3958H26.67C25.8882 18.3958 25.2134 18.2661 24.6476 18.0077C24.0807 17.7483 23.6498 17.3756 23.355 16.8895C23.0591 16.4033 22.9117 15.8376 22.9117 15.1942C22.9117 14.6131 23.055 14.0718 23.3425 13.5694C23.6301 13.0669 24.0371 12.6625 24.5635 12.3561C25.0898 12.0497 25.7045 11.8965 26.4063 11.8965H31.9358V13.3335H26.5734C25.9505 13.3335 25.4636 13.5183 25.1127 13.887C24.7618 14.2556 24.5863 14.6754 24.5863 15.1472C24.5863 15.619 24.7618 16.0112 25.1127 16.3717C25.4636 16.7332 25.99 16.9129 26.6928 16.9129H29.0869C29.9486 16.9129 30.6702 17.0539 31.2537 17.3368C31.8361 17.6197 32.2753 18.0118 32.5701 18.5143C32.865 19.0167 33.0134 19.606 33.0134 20.28C33.0134 20.8928 32.8535 21.4769 32.5348 22.0345C32.215 22.5921 31.7811 23.0435 31.2298 23.3887C30.6795 23.7339 30.0369 23.9065 29.3029 23.9065H23.2699L23.2719 23.9075Z" fill="white"/>
<path id="Vector_2" d="M41.154 24.2129C39.9248 24.2129 38.871 23.93 37.9937 23.3652C37.1154 22.8005 36.4457 22.0427 35.9827 21.0929C35.5196 20.1432 35.2881 19.08 35.2881 17.9025C35.2881 16.725 35.5435 15.6384 36.0543 14.6886C36.5651 13.7389 37.295 12.9893 38.2449 12.4398C39.1939 11.8904 40.3234 11.6157 41.6326 11.6157C42.9418 11.6157 43.9821 11.8904 44.8998 12.4398C45.8176 12.9893 46.5277 13.7276 47.0302 14.6529C47.5327 15.5792 47.784 16.6229 47.784 17.7851V23.9075H46.1322V21.2226H46.0606C45.8373 21.6934 45.502 22.1612 45.0556 22.6238C44.6081 23.0874 44.062 23.4674 43.4162 23.7656C42.7694 24.0638 42.0157 24.2129 41.154 24.2129ZM41.5132 22.7995C42.4071 22.7995 43.1972 22.584 43.8834 22.152C44.5697 21.72 45.1085 21.1317 45.4989 20.3862C45.8903 19.6407 46.0855 18.7972 46.0855 17.8545C46.0855 16.9119 45.9017 16.1041 45.5352 15.3821C45.1677 14.6601 44.6496 14.0871 43.979 13.6633C43.3083 13.2395 42.5099 13.0271 41.5849 13.0271C40.6598 13.0271 39.8054 13.2426 39.1191 13.6745C38.4329 14.1065 37.9065 14.6948 37.539 15.4403C37.1714 16.1858 36.9887 17.0294 36.9887 17.972C36.9887 18.8513 37.1642 19.6601 37.5151 20.3975C37.866 21.1358 38.3809 21.72 39.0589 22.152C39.7368 22.584 40.5549 22.7995 41.5132 22.7995Z" fill="white"/>
<path id="Vector_3" d="M52.0469 23.9075V13.3345H49.8926V11.8976H52.0469V10.1318C52.0469 9.0646 52.3542 8.22819 52.9688 7.62361C53.5834 7.01903 54.4327 6.71674 55.5186 6.71674H58.2958V8.15364H55.8301C55.1438 8.15364 54.6175 8.34155 54.2499 8.7184C53.8824 9.09524 53.6997 9.62936 53.6997 10.3197V11.8976H57.8411V13.3345H53.6997V23.9075H52.0479H52.0469Z" fill="white"/>
<path id="Vector_4" d="M65.4761 23.9075C64.1669 23.9075 62.9979 23.6685 61.969 23.1896C60.9391 22.7106 60.1262 22.0243 59.5271 21.1287C58.9291 20.2341 58.6291 19.1587 58.6291 17.9025C58.6291 16.7414 58.8689 15.6854 59.3475 14.7356C59.8261 13.7859 60.4999 13.0281 61.3699 12.4633C62.24 11.8986 63.2574 11.6157 64.4223 11.6157C65.5871 11.6157 66.6326 11.8751 67.4621 12.3929C68.2917 12.9106 68.9229 13.6092 69.3538 14.4885C69.7846 15.3678 70.0006 16.3574 70.0006 17.4552C70.0006 17.6125 69.9923 17.7851 69.9767 17.973C69.9601 18.1609 69.9362 18.3264 69.905 18.4673H60.4013C60.4491 19.3466 60.7045 20.0839 61.1675 20.6804C61.6305 21.2768 62.2327 21.7241 62.975 22.0223C63.7173 22.3205 64.5188 22.4696 65.3805 22.4696H68.4692V23.9065H65.4771L65.4761 23.9075ZM60.4013 17.2908H68.301C68.301 16.9773 68.2688 16.628 68.2055 16.243C68.1411 15.859 68.0259 15.4781 67.8587 15.1012C67.6916 14.7244 67.4601 14.3792 67.1642 14.0647C66.8683 13.7511 66.4935 13.4958 66.0388 13.2997C65.584 13.1037 65.0296 13.0056 64.3745 13.0056C63.7682 13.0056 63.2169 13.1312 62.7227 13.3825C62.2275 13.6337 61.8133 13.9676 61.4779 14.3833C61.1426 14.7989 60.883 15.2585 60.7003 15.761C60.5165 16.2634 60.4169 16.7741 60.4013 17.2918V17.2908Z" fill="white"/>
</g>
<path id="Vector_5" d="M16.8691 12.1805C16.6615 12.0314 16.4393 11.8874 16.2036 11.7485C17.8471 10.9019 19.0493 9.27194 19.3577 7.47249C19.666 5.67304 19.0722 3.74491 17.8014 2.41626C16.1382 0.676037 13.5697 0.080646 11.1434 0.00915821C8.7171 -0.0613084 6.28458 0.304301 3.86556 0.106177C2.8938 0.0265195 1.85975 -0.133817 0.989733 0.297152C0.119717 0.728122 -0.328788 2.06392 0.448828 2.64195C0.8122 2.91259 1.30431 2.92382 1.76008 2.9228C4.63072 2.9228 7.50032 2.92076 10.371 2.91973C11.623 2.91973 12.9052 2.92382 14.0825 3.3456C15.2599 3.76738 16.3282 4.69876 16.541 5.91303C16.7736 7.2376 15.9191 8.57238 14.7636 9.29032C13.6081 10.0083 12.2065 10.2227 10.8444 10.333C8.77835 10.5005 6.69571 10.4637 4.63695 10.2237C3.92267 10.141 3.02981 9.84793 2.9997 9.14122C2.96648 8.37119 3.9725 8.04133 4.75323 7.97495C6.68118 7.81257 8.62159 7.78601 10.5526 7.89631C11.7154 7.96269 13.2997 7.7564 13.4108 6.61566C13.47 6.01005 12.9935 5.45347 12.4276 5.21041C11.8618 4.96735 11.2223 4.96633 10.6035 4.96939C9.3068 4.97654 8.01112 4.98369 6.7144 4.99595C4.77088 5.01433 2.61764 5.12462 1.23683 6.46962C-0.228082 7.89631 -0.170981 10.5414 1.35518 11.9047C0.0792269 12.6635 -0.264419 14.4722 0.364733 15.8018C0.993886 17.1315 2.37885 17.9945 3.82092 18.3672C5.26299 18.74 6.77877 18.69 8.2686 18.6379C9.2144 18.6042 10.1592 18.5715 11.105 18.5378C12.0165 18.5061 13.1679 18.2896 13.3631 17.4124C13.4949 16.819 13.0495 16.2195 12.4931 15.9581C11.9366 15.6967 11.295 15.6915 10.6772 15.6926C8.87802 15.6946 7.07777 15.6967 5.27856 15.6977C4.28708 15.6977 2.9291 15.3229 3.05369 14.3557C3.15439 13.5796 4.15938 13.3304 4.9536 13.2824C6.59812 13.1833 8.24679 13.1517 9.89443 13.1874C11.4299 13.2211 13.0174 13.3263 14.3795 14.0228C15.4281 14.558 16.3272 15.5036 16.4995 16.6536C16.7383 18.2406 15.5142 19.7582 14.0286 20.422C12.5429 21.0858 10.8527 21.0899 9.22167 21.0817C6.87636 21.0715 4.53105 21.0603 2.18678 21.0501C1.43201 21.047 0.537076 21.1165 0.149825 21.7537C-0.282069 22.4635 0.281677 23.4276 1.05203 23.7584C1.82237 24.0893 2.70381 23.9852 3.54268 23.928C6.62512 23.7186 9.75427 24.2313 12.7952 23.6931C18.4596 22.6902 22.084 15.9183 16.8681 12.1774L16.8691 12.1805Z" fill="#03C75A"/>
</g>
</svg>
