<svg width="74" height="30" viewBox="0 0 74 30" fill="none" xmlns="http://www.w3.org/2000/svg">
<g opacity="0.5">
<path d="M21.9671 0H9.28481C4.50291 0 0.625977 3.87693 0.625977 8.65883V21.3412C0.625977 26.1231 4.50291 30 9.28481 30H21.9671C26.749 30 30.626 26.1231 30.626 21.3412V8.65883C30.6281 3.87693 26.7512 0 21.9671 0ZM27.8643 21.5642C27.8643 24.738 25.2917 27.3127 22.1159 27.3127H9.1361C5.96233 27.3127 3.38762 24.7401 3.38762 21.5642V8.58448C3.38762 5.41071 5.96021 2.836 9.1361 2.836H22.1159C25.2896 2.836 27.8643 5.40858 27.8643 8.58448V21.5642Z" fill="white"/>
<path d="M15.6264 7.29102C11.3267 7.29102 7.84277 10.7771 7.84277 15.0746C7.84277 19.3722 11.3288 22.8582 15.6264 22.8582C19.9239 22.8582 23.41 19.3722 23.41 15.0746C23.41 10.7771 19.9239 7.29102 15.6264 7.29102ZM15.6264 20.1221C12.8392 20.1221 10.5811 17.8618 10.5811 15.0767C10.5811 12.2917 12.8414 10.0314 15.6264 10.0314C18.4114 10.0314 20.6717 12.2917 20.6717 15.0767C20.6717 17.8618 18.4114 20.1221 15.6264 20.1221Z" fill="white"/>
<path d="M23.6706 8.80905C24.6726 8.80905 25.4848 7.9968 25.4848 6.99485C25.4848 5.99291 24.6726 5.18066 23.6706 5.18066C22.6687 5.18066 21.8564 5.99291 21.8564 6.99485C21.8564 7.9968 22.6687 8.80905 23.6706 8.80905Z" fill="white"/>
</g>
<g opacity="0.5" clip-path="url(#clip0_8_165)">
<path d="M59.124 0C51.1164 0 44.626 5.8751 44.626 13.1187C44.626 18.4695 46.9156 21.0254 50.0563 23.3539L50.0721 23.3616V29.6415C50.0721 29.9383 50.4189 30.1079 50.6593 29.9306L56.1566 25.9368L56.2748 25.9869C57.197 26.1527 58.1506 26.2413 59.124 26.2413C67.1316 26.2413 73.622 20.3662 73.622 13.1226C73.622 5.87895 67.1316 0 59.124 0ZM48.8032 13.1033C48.8032 10.0077 51.2189 7.7872 54.2651 7.7872C56.9132 7.7872 58.8954 9.44102 59.3841 11.9584H57.2876C56.9684 10.5898 55.7113 9.73786 54.2651 9.73786C52.2159 9.73786 50.8524 11.1681 50.8524 13.1033C50.8524 15.0386 52.4011 16.4418 54.2651 16.4418C55.6877 16.4418 56.9014 15.6091 57.2679 14.3254H59.3683C58.856 16.8003 56.8857 18.4194 54.2651 18.4194C51.2189 18.4194 48.8032 16.1951 48.8032 13.1033ZM68.1168 18.219H66.1898V13.9668C66.1898 12.9877 65.6065 12.4634 64.712 12.4634C63.711 12.4634 63.0687 13.0609 63.0687 14.2752V18.219H61.1417V7.8219H63.0687V11.7348C63.5298 11.0486 64.2785 10.7132 65.2952 10.7132C66.1149 10.7132 66.7888 10.9753 67.3129 11.515C67.8528 12.0547 68.1207 12.7872 68.1207 13.7355V18.219H68.1168Z" fill="white"/>
</g>
<defs>
<clipPath id="clip0_8_165">
<rect width="29" height="30" fill="white" transform="translate(44.626)"/>
</clipPath>
</defs>
</svg>
